# AST/ASF file generated using VICON BodyLanguage
# -----------------------------------------------
:version 1.10
:name VICON
:units
  mass 1.0
  length 0.45
  angle deg
:documentation
   .ast/.asf automatically generated from VICON data using
   VICON BodyBuilder and BodyLanguage model FoxedUp or BRILLIANT.MOD
:root
   order TX TY TZ RX RY RZ
   axis XYZ
   position 0 0 0  
   orientation 0 0 0 
:bonedata
  begin
     id 1 
     name lhipjoint
     direction 0.558404 -0.748506 0.357664 
     length 2.4234 
     axis 0 0 0  XYZ
  end
  begin
     id 2 
     name lfemur
     direction 0.34202 -0.939693 0  
     length 7.14567  
     axis 0 0 20  XYZ
    dof rx ry rz
    limits (-160.0 20.0)
           (-70.0 70.0)
           (-60.0 70.0)
  end
  begin
     id 3 
     name ltibia
     direction 0.34202 -0.939693 0   
     length 8.13956   
     axis 0 0 20   XYZ
    dof rx
    limits (-10.0 170.0)
  end
  begin
     id 4 
     name lfoot
     direction 0.0791314 -0.217412 0.972867   
     length 2.00134   
     axis -90 7.62852e-016 20   XYZ
    dof rx rz
    limits (-45.0 90.0)
           (-70.0 20.0)
  end
  begin
     id 5 
     name ltoes
     direction 1.53547e-011 -4.21922e-011 1   
     length 1.00735   
     axis -90 7.62852e-016 20   XYZ
    dof rx
    limits (-90.0 20.0)
  end
  begin
     id 6 
     name rhipjoint
     direction -0.496392 -0.78327 0.374276   
     length 2.31584  
     axis 0 0 0  XYZ 
  end
  begin
     id 7 
     name rfemur
     direction -0.34202 -0.939693 0   
     length 7.47417   
     axis 0 0 -20   XYZ
    dof rx ry rz
    limits (-160.0 20.0)
           (-70.0 70.0)
           (-70.0 60.0)
  end
  begin
     id 8 
     name rtibia
     direction -0.34202 -0.939693 0   
     length 7.69071   
     axis 0 0 -20   XYZ
    dof rx
    limits (-10.0 170.0)
 end
 begin
     id 9 
     name rfoot
     direction -0.103069 -0.28318 0.953512   
     length 2.16135  
     axis -90 -7.62852e-016 -20   XYZ
    dof rx rz
    limits (-45.0 90.0)
           (-20.0 70.0)
  end
  begin
     id 10 
     name rtoes
     direction -1.53581e-011 -4.21904e-011 1   
     length 1.07867   
     axis -90 -7.62852e-016 -20   XYZ
    dof rx
    limits (-90.0 20.0)
  end
  begin
     id 11 
     name lowerback
     direction -0.0258961 0.994776 -0.0987407   
     length 2.19412   
     axis 0 0 0   XYZ
    dof rx ry rz
    limits (-20.0 45.0)
           (-30.0 30.0)
           (-30.0 30.0)
  end
  begin
     id 12 
     name upperback
     direction 0.0402454 0.999185 0.00320666   
     length 2.18445   
     axis 0 0 0   XYZ
    dof rx ry rz
    limits (-20.0 45.0)
           (-30.0 30.0)
           (-30.0 30.0)
  end
  begin
     id 13 
     name thorax
     direction 0.0519376 0.997415 0.0496558   
     length 2.21487   
     axis 0 0 0   XYZ
    dof rx ry rz
    limits (-20.0 45.0)
           (-30.0 30.0)
           (-30.0 30.0)
  end
  begin
     id 14 
     name lowerneck
     direction -0.0921276 0.983211 0.157506   
     length 1.61201   
     axis 0 0 0   XYZ
    dof rx ry rz
    limits (-20.0 45.0)
           (-30.0 30.0)
           (-30.0 30.0)
  end
  begin
     id 15 
     name upperneck
     direction 0.0820814 0.98162 -0.172292   
     length 1.65275   
     axis 0 0 0   XYZ
    dof rx ry rz
    limits (-20.0 45.0)
           (-30.0 30.0)
           (-30.0 30.0)
  end
  begin
     id 16
     name head
     direction 0.0336554 0.996413 -0.0776455  
     length 1.66415  
     axis 0 0 0   XYZ
    dof rx ry rz
    limits (-20.0 45.0)
           (-30.0 30.0)
           (-30.0 30.0)
  end
  begin
     id 17 
     name lclavicle
     direction 0.94696 0.284418 -0.149576  
     length 3.41447  
     axis 0 0 0   XYZ
    dof ry rz
    limits (-20.0 10.0)
           (0.0 20.0)
  end
  begin
     id 18 
     name lhumerus
     direction 1 -0.000130264 -9.81312e-005   
     length 5.19964   
     axis 180 -30 -90   XYZ
    dof rx ry rz
    limits (-60.0 90.0)
           (-90.0 90.0)
           (-90.0 90.0)
  end
  begin
     id 19
     name lradius
     direction 1 -4.48961e-011 1.43854e-026   
     length 3.32189   
     axis 180 -30 -90   XYZ
    dof rx
    limits (-10.0 170.0)
  end
  begin
     id 20
     name lwrist
     direction 1 -4.48958e-011 3.1502e-026   
     length 1.66095   
     axis -1.97692e-014 90 90   XYZ
    dof ry
    limits (-180.0 0.0)
 end
  begin
     id 21 
     name lhand
     direction 1 -4.48927e-011 6.3004e-026   
     length 0.645616   
     axis -4.02019e-014 90 90   XYZ
    dof rx rz
    limits (-90.0 90.0)
           (-45.0 45.0)
  end
  begin
     id 22 
     name lfingers
     direction 1 -4.4904e-011 1.26008e-025   
     length 0.520512   
     axis -8.04039e-014 90 90   XYZ
    dof rx
    limits (0.0 90.0)
  end
  begin
     id 23
     name lthumb
     direction 0.707107 -6.34947e-011 0.707107   
     length 0.747354   
     axis -90 45 2.85299e-015   XYZ
    dof rx rz
    limits (-45.0 45.0)
           (-45.0 45.0)
  end
  begin
     id 24 
     name rclavicle
     direction -0.909391 0.383475 -0.161107   
     length 3.25176  
     axis 0 0 0   XYZ 
    dof ry rz
    limits (-10.0 20.0)
           (-20.0 0.0)
  end
  begin
     id 25 
     name rhumerus
     direction -1 -4.48965e-011 -1.81384e-027  
     length 5.6595   
     axis 180 30 90   XYZ
    dof rx ry rz
    limits (-90.0 60.0)
           (-90.0 90.0)
           (-90.0 90.0)
  end
  begin
     id 26 
     name rradius
     direction -1 -4.48996e-011 -8.09397e-027   
     length 3.37604   
     axis 180 30 90   XYZ
    dof rx
    limits (-10.0 170.0)
  end
  begin
     id 27 
     name rwrist
     direction -1 -4.48927e-011 -1.56669e-026   
     length 1.68802   
     axis 1.21142e-014 -90 -90   XYZ
    dof ry
    limits (-180.0 0.0)
  end
  begin
     id 28
     name rhand
     direction -1 -4.48912e-011 -3.13339e-026   
     length 0.824702   
     axis 1.99937e-014 -90 -90   XYZ
    dof rx rz
    limits (-90.0 90.0)
           (-45.0 45.0)
  end
  begin
     id 29
     name rfingers
     direction -1 -4.49011e-011 -6.26677e-026   
     length 0.664896   
     axis 3.99874e-014 -90 -90   XYZ
    dof rx
    limits (0.0 90.0)
  end
  begin
     id 30
     name rthumb
     direction -0.707107 -6.34931e-011 0.707107   
     length 0.954662   
     axis -90 -45 -2.85299e-015   XYZ
    dof rx rz
    limits (-45.0 45.0)
           (-45.0 45.0)
  end
:hierarchy
  begin
    root lhipjoint rhipjoint lowerback
    lhipjoint lfemur
    lfemur ltibia
    ltibia lfoot
    lfoot ltoes
    rhipjoint rfemur
    rfemur rtibia
    rtibia rfoot
    rfoot rtoes
    lowerback upperback
    upperback thorax
    thorax lowerneck lclavicle rclavicle
    lowerneck upperneck
    upperneck head
    lclavicle lhumerus
    lhumerus lradius
    lradius lwrist
    lwrist lhand lthumb
    lhand lfingers
    rclavicle rhumerus
    rhumerus rradius
    rradius rwrist
    rwrist rhand rthumb
    rhand rfingers
  end

#!OML:ASF F:\VICON\USERDATA\INSTALL\rory3\rory3.ASF
:FULLY-SPECIFIED
:DEGREES
78
root 11.693 17.5894 -38.4259 5.66972 -18.559 -1.18846
lowerback 5.83746 -1.13965 -3.79457
upperback -3.30355 -1.61793 4.12601
thorax -6.52983 -0.532013 6.68943
lowerneck -12.264 -7.27725 -16.3739
upperneck 18.2155 -8.86545 10.3752
head 8.93494 -4.36952 5.17654
rclavicle 9.7653e-015 3.18055e-014
rhumerus -36.3589 -12.1121 -74.5797
rradius 30.1049
rwrist -13.1053
rhand -13.294 17.6144
rfingers 7.12502
rthumb 12.8098 -11.9725
lclavicle 9.7653e-015 3.18055e-014
lhumerus -32.4369 8.9725 90.148
lradius 24.996
lwrist -8.59053
lhand -5.2024 32.391
lfingers 7.12502
lthumb 20.5989 61.318
rfemur -16.4408 3.23398 25.2235
rtibia 42.6052
rfoot -28.9807 -10.5148
rtoes 24.7445
lfemur -17.3682 -1.16089 -18.7363
ltibia 43.8006
lfoot -25.9685 8.30156
ltoes -2.40527
79
root 11.6814 17.6055 -38.4165 5.74485 -18.4947 -1.27832
lowerback 5.73423 -1.11351 -3.66398
upperback -3.19132 -1.57133 4.10661
thorax -6.36014 -0.523663 6.57985
lowerneck -12.4962 -7.04898 -16.148
upperneck 18.2138 -8.56105 10.4153
head 8.92137 -4.20032 5.19256
rclavicle 2.06985e-014 1.66979e-014
rhumerus -36.2729 -12.3298 -74.6329
rradius 30.1108
rwrist -12.8684
rhand -13.3985 17.4292
rfingers 7.12502
rthumb 12.7091 -12.164
lclavicle 2.06985e-014 1.66979e-014
lhumerus -32.2038 9.02774 90.0636
lradius 25.053
lwrist -8.94543
lhand -4.78927 32.6477
lfingers 7.12502
lthumb 20.9959 61.5312
rfemur -16.4286 3.24646 25.3595
rtibia 42.6003
rfoot -28.9732 -10.5391
rtoes 24.8195
lfemur -17.7523 -1.58927 -18.5417
ltibia 44.2465
lfoot -25.8863 7.8707
ltoes -0.0307288
80
root 11.6744 17.5854 -38.4124 5.81736 -18.29 -1.24317
lowerback 5.62687 -1.18612 -3.63176
upperback -3.11091 -1.6655 4.09187
thorax -6.20038 -0.579415 6.54749
lowerneck -12.4784 -6.8047 -16.0146
upperneck 18.0527 -8.23333 10.4002
head 8.80731 -4.03687 5.20937
rclavicle 1.65488e-014 -3.33958e-014
rhumerus -36.0792 -12.3906 -74.7552
rradius 30.0341
rwrist -12.6551
rhand -13.5058 17.3559
rfingers 7.12502
rthumb 12.6056 -12.2437
lclavicle 1.65488e-014 -3.33958e-014
lhumerus -32.0686 9.36691 89.9354
lradius 25.1235
lwrist -9.36568
lhand -4.60681 32.6192
lfingers 7.12502
lthumb 21.1712 61.4832
rfemur -16.5188 2.99954 25.3752
rtibia 42.6058
rfoot -28.9298 -10.6284
rtoes 24.1422
lfemur -17.9867 -1.55347 -18.5633
ltibia 44.6723
lfoot -25.3066 8.27675
ltoes -4.23441
81
root 11.6697 17.5774 -38.396 5.75302 -18.2522 -1.31943
lowerback 5.62746 -1.20865 -3.43589
upperback -2.98478 -1.6802 4.09888
thorax -6.06867 -0.601971 6.43907
lowerneck -12.4064 -6.62389 -15.8335
upperneck 17.7499 -7.98413 10.2929
head 8.64201 -3.91461 5.17234
rclavicle -2.7805e-014 -2.06736e-014
rhumerus -35.8539 -12.5776 -74.7561
rradius 29.7891
rwrist -12.3924
rhand -13.3939 17.4345
rfingers 7.12502
rthumb 12.7134 -12.1584
lclavicle -2.7805e-014 -2.06736e-014
lhumerus -32.0215 9.82117 89.7923
lradius 25.2327
lwrist -9.6602
lhand -4.56725 32.4347
lfingers 7.12502
lthumb 21.2092 61.2944
rfemur -16.3241 2.77766 25.4512
rtibia 42.5637
rfoot -28.9548 -10.5618
rtoes 23.577
lfemur -18.0892 -1.47501 -18.4907
ltibia 45.2012
lfoot -25.5625 8.03022
ltoes -3.41828
82
root 11.6632 17.5737 -38.3766 5.70031 -18.3475 -1.43254
lowerback 5.49336 -1.16871 -3.21653
upperback -2.79407 -1.60802 4.1122
thorax -5.8036 -0.587392 6.30772
lowerneck -10.5994 -6.37601 -16.7083
upperneck 17.4051 -7.87605 10.932
head 8.24674 -3.91669 5.58709
rclavicle 3.04389e-014 -2.06736e-014
rhumerus -35.6 -12.8598 -74.6584
rradius 29.5116
rwrist -12.1215
rhand -13.2878 17.5713
rfingers 7.12502
rthumb 12.8158 -12.0153
lclavicle 3.04389e-014 -2.06736e-014
lhumerus -31.895 10.1261 89.7273
lradius 25.314
lwrist -9.81779
lhand -4.86126 32.0571
lfingers 7.12502
lthumb 20.9267 60.9483
rfemur -16.1154 2.68007 25.5434
rtibia 42.555
rfoot -28.9487 -10.2273
rtoes 24.2521
lfemur -18.2454 -1.45187 -18.3576
ltibia 45.7532
lfoot -25.4269 7.92666
ltoes -3.42152
83
root 11.6524 17.5715 -38.3627 5.76506 -18.3294 -1.51978
lowerback 5.33345 -1.1334 -3.146
upperback -2.6853 -1.55156 4.16853
thorax -5.60462 -0.56953 6.31205
lowerneck -10.8103 -6.18079 -16.7307
upperneck 17.5386 -7.59313 11.0391
head 8.29076 -3.77073 5.66394
rclavicle 4.09993e-014 -1.43125e-014
rhumerus -35.5873 -12.6568 -74.6104
rradius 29.5486
rwrist -12.2128
rhand -13.225 17.6257
rfingers 7.12502
rthumb 12.8763 -11.9571
lclavicle 4.09993e-014 -1.43125e-014
lhumerus -31.6954 10.1178 89.7971
lradius 25.2162
lwrist -9.94
lhand -5.30168 31.5043
lfingers 7.12502
lthumb 20.5035 60.4416
rfemur -16.037 2.61879 25.662
rtibia 42.4584
rfoot -28.938 -10.0084
rtoes 25.5448
lfemur -18.6486 -1.44739 -18.1855
ltibia 46.4068
lfoot -25.2208 7.73766
ltoes -3.60225
84
root 11.6419 17.5657 -38.3473 5.84726 -18.3263 -1.78772
lowerback 5.42252 -1.07017 -2.91419
upperback -2.73566 -1.44451 4.25856
thorax -5.72582 -0.518823 6.27029
lowerneck -11.3067 -5.98202 -16.3491
upperneck 17.8218 -7.28759 10.8586
head 8.40557 -3.60589 5.57314
rclavicle -1.99282e-014 2.94201e-014
rhumerus -35.903 -11.9959 -74.8061
rradius 30.0266
rwrist -13.2659
rhand -13.763 16.767
rfingers 7.12502
rthumb 12.3576 -12.8477
lclavicle -1.99282e-014 2.94201e-014
lhumerus -31.7305 9.80732 89.9176
lradius 25.1384
lwrist -9.72295
lhand -5.36133 31.6974
lfingers 7.12502
lthumb 20.4462 60.6409
rfemur -15.9441 2.66363 25.9993
rtibia 42.3514
rfoot -28.9642 -10.269
rtoes 25.0888
lfemur -18.9762 -1.38162 -17.8364
ltibia 47.0841
lfoot -24.9798 7.66446
ltoes -4.88932
